<?xml version="1.0" standalone="no"?>
<!DOCTYPE svg PUBLIC "-//W3C//DTD SVG 20010904//EN"
 "http://www.w3.org/TR/2001/REC-SVG-20010904/DTD/svg10.dtd">
<svg version="1.0" xmlns="http://www.w3.org/2000/svg"
 width="512.000000pt" height="512.000000pt" viewBox="0 0 512.000000 512.000000"
 preserveAspectRatio="xMidYMid meet">

<g transform="translate(0.000000,512.000000) scale(0.100000,-0.100000)"
fill="#10151C" stroke="none">
<path d="M2330 5110 c-862 -77 -1641 -602 -2041 -1374 -138 -267 -217 -512
-265 -826 -25 -161 -25 -539 0 -700 115 -749 508 -1371 1126 -1784 129 -87
386 -217 531 -270 561 -205 1220 -203 1770 4 233 88 523 254 715 410 101 82
302 283 384 384 160 198 326 490 414 727 96 261 156 598 156 879 0 281 -60
618 -156 879 -88 237 -254 529 -414 727 -82 101 -283 302 -384 384 -198 160
-490 326 -727 414 -337 124 -746 178 -1109 146z m570 -185 c514 -77 977 -311
1345 -680 371 -370 601 -827 681 -1350 25 -167 25 -503 0 -670 -80 -523 -310
-980 -681 -1350 -370 -371 -827 -601 -1350 -681 -167 -25 -503 -25 -670 0
-523 80 -980 310 -1350 681 -371 370 -601 827 -681 1350 -25 167 -25 503 0
670 80 523 310 980 681 1350 410 410 903 639 1510 699 83 8 414 -4 515 -19z"/>
<path d="M3585 4327 c-46 -25 -85 -92 -85 -144 0 -105 101 -188 205 -169 43 8
103 59 121 103 61 145 -103 288 -241 210z"/>
<path d="M2430 4259 c-220 -16 -414 -70 -625 -174 -337 -167 -603 -433 -770
-770 -107 -216 -158 -404 -174 -638 -9 -123 1 -320 19 -387 19 -72 98 -96 140
-42 20 25 21 34 15 122 -22 285 3 492 88 727 144 397 503 756 900 900 190 68
337 94 537 94 413 0 770 -146 1068 -435 304 -295 463 -672 463 -1096 0 -413
-146 -770 -435 -1068 -235 -242 -525 -393 -861 -448 -106 -18 -350 -20 -450
-5 -296 46 -555 163 -775 350 l-35 30 235 236 c129 129 240 235 245 235 6 0
27 -12 46 -26 56 -42 183 -102 266 -126 66 -20 101 -23 233 -23 134 1 165 4
230 24 150 47 266 115 371 220 105 105 173 221 220 371 20 65 24 96 24 230 0
134 -4 165 -24 230 -47 150 -115 266 -220 371 -105 105 -221 173 -371 220 -65
20 -96 24 -230 24 -134 0 -165 -4 -230 -24 -150 -47 -266 -115 -371 -220 -157
-157 -237 -341 -247 -563 -7 -181 16 -238 100 -238 62 0 74 29 70 170 -2 90 1
132 17 193 79 305 350 517 661 517 374 0 680 -306 680 -680 0 -372 -306 -680
-677 -680 -110 0 -210 23 -308 71 -138 67 -138 51 2 191 l121 121 71 -23 c170
-54 345 20 420 180 37 79 37 201 0 280 -33 70 -99 136 -169 169 -46 22 -69 26
-140 26 -71 0 -94 -4 -140 -26 -160 -75 -234 -250 -180 -420 l23 -71 -617
-617 c-556 -556 -617 -621 -618 -650 -1 -44 39 -84 83 -83 28 1 51 20 163 131
72 72 136 131 141 131 6 0 42 -26 81 -58 513 -419 1238 -494 1837 -190 610
311 974 952 926 1636 -16 233 -68 421 -174 637 -309 624 -960 995 -1655 944z
m210 -1552 c51 -27 90 -90 90 -147 0 -113 -123 -199 -227 -159 -38 14 -83 57
-99 96 -33 77 1 170 76 210 55 29 105 29 160 0z"/>
<path d="M692 3649 c-121 -60 -122 -238 -2 -299 69 -35 139 -24 197 32 63 61
68 153 13 220 -56 68 -131 85 -208 47z"/>
<path d="M3345 1946 c-17 -7 -43 -28 -58 -45 -74 -89 -47 -215 57 -262 53 -24
90 -24 143 2 63 31 97 92 91 165 -5 58 -24 93 -71 128 -33 25 -121 32 -162 12z"/>
</g>
</svg>
